Coordinates
version=1
nRows=9
nColumns=63
inDegrees=yes

Units are S.I. units (second, meters, Newtons, ...)
If the header above contains a line with 'inDegrees', this indicates whether rotational values are in degrees (yes) or radians (no).

endheader
time	pelvis_tilt	pelvis_list	pelvis_rotation	pelvis_tx	pelvis_ty	pelvis_tz	hip_flexion_r	hip_adduction_r	hip_rotation_r	knee_angle_r	knee_angle_r_beta	ankle_angle_r	subtalar_angle_r	mtp_angle_r	hip_flexion_l	hip_adduction_l	hip_rotation_l	knee_angle_l	knee_angle_l_beta	ankle_angle_l	subtalar_angle_l	mtp_angle_l	L5_S1_Flex_Ext	L5_S1_Lat_Bending	L5_S1_axial_rotation	L4_L5_Flex_Ext	L4_L5_Lat_Bending	L4_L5_axial_rotation	L3_L4_Flex_Ext	L3_L4_Lat_Bending	L3_L4_axial_rotation	L2_L3_Flex_Ext	L2_L3_Lat_Bending	L2_L3_axial_rotation	L1_L2_Flex_Ext	L1_L2_Lat_Bending	L1_L2_axial_rotation	L1_T12_Flex_Ext	L1_T12_Lat_Bending	L1_T12_axial_rotation	Abs_r3	Abs_r2	Abs_r1	Abs_t1	Abs_t2	neck_flexion	neck_bending	neck_rotation	arm_flex_r	arm_add_r	arm_rot_r	elbow_flex_r	pro_sup_r	wrist_flex_r	wrist_dev_r	arm_flex_l	arm_add_l	arm_rot_l	elbow_flex_l	pro_sup_l	wrist_flex_l	wrist_dev_l
0.000000	-1.080483	-5.158844	99.041622	0.241752	0.994095	0.283296	-0.858930	-0.640809	-7.888459	0.391056	0.006825	22.414880	-1.143215	0.000000	10.384630	5.086980	8.108433	17.805818	0.310770	23.658464	-17.413250	0.000000	0.122775	-0.154705	-0.698698	0.228006	-0.205758	-0.742366	0.201707	-0.376150	-0.742366	0.140320	-0.376150	-0.611361	0.114009	-0.315475	-0.567692	0.070154	-0.239638	-0.524023	0.876971	-1.750056	-3.885947	0.000000	0.000000	22.215187	-0.009901	1.774831	13.527512	-2.783441	64.972958	36.472255	23.068602	-5.578956	3.545363	18.424458	-3.443080	69.175291	36.332132	68.313668	1.914146	2.658535
0.016667	-1.211885	-5.116240	98.544304	0.242115	0.993859	0.284344	-0.782624	-0.845055	-5.909293	0.425331	0.007423	22.726137	-3.007660	0.000000	10.333020	5.190288	7.826383	17.884019	0.312135	23.821285	-17.590858	0.000000	0.099896	-0.166591	-0.619108	0.185517	-0.221566	-0.657803	0.164119	-0.405049	-0.657803	0.114171	-0.405049	-0.541720	0.092764	-0.339712	-0.503026	0.057081	-0.258049	-0.464331	0.713548	-1.884509	-3.443296	0.000000	0.000000	21.635331	-0.304735	1.363889	13.963665	-2.691015	65.181248	36.212882	21.667032	-5.419224	4.342164	18.514881	-3.478312	69.119184	35.958231	65.487103	1.230283	2.327736
0.033333	-1.316726	-5.082052	98.120286	0.242391	0.993649	0.285212	-0.717417	-1.012467	-4.200123	0.453605	0.007917	22.921546	-4.676169	0.000000	10.302945	5.266475	7.543919	17.939013	0.313095	24.009133	-17.657541	0.000000	0.082445	-0.175170	-0.546671	0.153109	-0.232976	-0.580837	0.135449	-0.425909	-0.580837	0.094227	-0.425909	-0.478337	0.076559	-0.357207	-0.444170	0.047109	-0.271339	-0.410003	0.588899	-1.981561	-3.040417	0.000000	0.000000	21.140463	-0.510743	1.074202	14.315399	-2.630578	65.294322	36.017289	20.741004	-5.301215	5.062528	18.601052	-3.503742	69.110078	35.651985	63.094345	0.718183	2.044913
0.050000	-1.397139	-5.055261	97.763141	0.242586	0.993463	0.285913	-0.662559	-1.145959	-2.742101	0.476426	0.008315	23.014158	-6.157214	0.000000	10.291361	5.317892	7.263093	17.973343	0.313694	24.215108	-17.628295	0.000000	0.069932	-0.180712	-0.481139	0.129870	-0.240347	-0.511210	0.114891	-0.439384	-0.511210	0.079925	-0.439384	-0.420997	0.064939	-0.368508	-0.390925	0.039959	-0.279923	-0.360854	0.499516	-2.044252	-2.675950	0.000000	0.000000	20.722908	-0.635761	0.896773	14.589925	-2.599290	65.324320	35.880744	20.238658	-5.221166	5.707524	18.681989	-3.520657	69.138364	35.408513	61.099503	0.362696	1.808743
0.066667	-1.455252	-5.034847	97.466443	0.242710	0.993302	0.286458	-0.617302	-1.248446	-1.516378	0.494346	0.008628	23.017024	-7.459269	0.000000	10.295225	5.346889	6.985956	17.989549	0.313977	24.432310	-17.518120	0.000000	0.061864	-0.183485	-0.422268	0.114888	-0.244035	-0.448660	0.101637	-0.446126	-0.448660	0.070705	-0.446126	-0.369485	0.057447	-0.374163	-0.343093	0.035349	-0.284219	-0.316701	0.441891	-2.075621	-2.348530	0.000000	0.000000	20.374990	-0.687627	0.822603	14.794449	-2.594312	65.283383	35.798518	20.108135	-5.175317	6.278217	18.756712	-3.530345	69.194431	35.222934	59.466682	0.148674	1.617903
0.083333	-1.493197	-5.019793	97.223765	0.242772	0.993165	0.286862	-0.580897	-1.322840	-0.504106	0.507912	0.008865	22.943197	-8.590805	0.000000	10.311493	5.355817	6.714562	17.990175	0.313988	24.653842	-17.342014	0.000000	0.057752	-0.183758	-0.369814	0.107251	-0.244398	-0.392928	0.094881	-0.446789	-0.392928	0.066005	-0.446789	-0.323587	0.053628	-0.374719	-0.300474	0.032999	-0.284641	-0.277361	0.412516	-2.078707	-2.056795	0.000000	0.000000	20.089033	-0.674176	0.842696	14.936181	-2.612806	65.183650	35.765880	20.297576	-5.159906	6.775675	18.824240	-3.534091	69.268672	35.090368	58.159990	0.060967	1.471072
0.100000	-1.513105	-5.009080	97.028681	0.242779	0.993051	0.287136	-0.552593	-1.372057	0.313565	0.517675	0.009035	22.805728	-9.560296	0.000000	10.337124	5.347026	6.450960	17.977761	0.313771	24.872801	-17.114974	0.000000	0.057103	-0.181799	-0.323531	0.106047	-0.241793	-0.343752	0.093815	-0.442027	-0.343752	0.065263	-0.442027	-0.283090	0.053026	-0.370725	-0.262869	0.032629	-0.281607	-0.242648	0.407884	-2.056550	-1.799382	0.000000	0.000000	19.857362	-0.603246	0.948054	15.022331	-2.651931	65.037263	35.778101	20.755119	-5.171169	7.200964	18.883591	-3.533182	69.351475	35.005934	57.143533	0.084427	1.366927
0.116667	-1.517105	-5.001689	96.874765	0.242740	0.992960	0.287293	-0.531642	-1.399010	0.955482	0.524185	0.009149	22.617669	-10.376214	0.000000	10.369074	5.322866	6.197204	17.954849	0.313371	25.082290	-16.851999	0.000000	0.059428	-0.177878	-0.283174	0.110363	-0.236577	-0.300872	0.097634	-0.432492	-0.300872	0.067920	-0.432492	-0.247777	0.055185	-0.362728	-0.230079	0.033957	-0.275533	-0.212380	0.424487	-2.012188	-1.574928	0.000000	0.000000	19.672301	-0.482672	1.129679	15.060106	-2.708850	64.856362	35.830450	21.428906	-5.205347	7.555151	18.933784	-3.528906	69.433232	34.964750	56.381417	0.203905	1.304146
0.133333	-1.507328	-4.996600	96.755588	0.242663	0.992890	0.287346	-0.517294	-1.406614	1.440496	0.527991	0.009215	22.392070	-11.047032	0.000000	10.404299	5.285687	5.955346	17.923982	0.312833	25.275409	-16.568087	0.000000	0.064234	-0.172262	-0.248498	0.119289	-0.229108	-0.264029	0.105530	-0.418838	-0.264029	0.073413	-0.418838	-0.217436	0.059648	-0.351277	-0.201904	0.036703	-0.266834	-0.186373	0.458816	-1.948662	-1.382070	0.000000	0.000000	19.526176	-0.320292	1.378574	15.056715	-2.780724	64.653087	35.918197	22.267076	-5.258676	7.839303	18.973839	-3.522547	69.504333	34.961937	55.837750	0.404252	1.281407
